{"title":"Rush 2013 DVDRip x264 AC3-MiLLENiUM","uid":9406652,"size":1799916230,"categoryP":"video","categoryS":"movies","magnet":"?xt=urn:btih:8f7fd5c82f8c48ada092d6b5ba2791c61c0f464d&amp;dn=Rush+2013+DVDRip+x264+AC3-MiLLENiUM&amp;tr=udp%3A%2F%2Ftracker.openbittorrent.com%3A80&amp;tr=udp%3A%2F%2Fopen.demonii.com%3A1337&amp;tr=udp%3A%2F%2Ftracker.coppersurfer.tk%3A6969&amp;tr=udp%3A%2F%2Fexodus.desync.com%3A6969","seeders":14,"leechers":5,"uploader":"HeroMaster","files":-1,"time":1388174374,"description":"::::::: MiLLENiUM PRESENTS :::::::\n\n\n-----------------------------------\nRush 2013 DVDRip x264 Ac3-MiLLENiUM\n-----------------------------------\n\n\n::General::\n\n\nSource: BiTO [thanks]\nFormat: Matroska\nFormat version: Version 4 / Version 2\nFile size: 1.63 GiB\nDuration: 2h 2mn\nOverall bit rate mode: Variable\nOverall bit rate: 1 908 Kbps\nEncoded date: UTC 2013-12-27 11:57:45\nWriting library: libebml v1.3.0 + libmatroska v1.4.1\n\n\n::Video::\n\n\nID: 1\nFormat: AVC\nFormat/Info: Advanced Video Codec\nFormat profile: &lt;a class=&quot;__cf_email__&quot; href=&quot;/cdn-cgi/l/email-protection&quot; data-cfemail=&quot;f4bc9d939cb4b8c0dac5&quot;&gt;[email&amp;#160;protected]&lt;/a&gt;&lt;script cf-hash='f9e31' type=&quot;text/javascript&quot;&gt;\n/* &lt;![CDATA[ */!function(){try{var t=&quot;currentScript&quot;in document?document.currentScript:function(){for(var t=document.getElementsByTagName(&quot;script&quot;),e=t.length;e--;)if(t[e].getAttribute(&quot;cf-hash&quot;))return t[e]}();if(t&amp;&amp;t.previousSibling){var e,r,n,i,c=t.previousSibling,a=c.getAttribute(&quot;data-cfemail&quot;);if(a){for(e=&quot;&quot;,r=parseInt(a.substr(0,2),16),n=2;a.length-n;n+=2)i=parseInt(a.substr(n,2),16)^r,e+=String.fromCharCode(i);e=document.createTextNode(e),c.parentNode.replaceChild(e,c)}}}catch(u){}}();/* ]]&gt; */&lt;/script&gt;\nFormat settings, CABAC: Yes\nFormat settings, ReFrames: 3 frames\nCodec ID: V_MPEG4/ISO/AVC\nDuration: 2h 2mn\nBit rate mode: Variable\nBit rate: 1 522 Kbps\nMaximum bit rate: 40.0 Mbps\nWidth: 720 pixels\nHeight: 384 pixels\nDisplay aspect ratio: 1.875\nFrame rate: 29.970 fps\nColor space: YUV\nChroma subsampling: 4:2:0\nBit depth: 8 bits\nScan type: Progressive\nBits/(Pixel*Frame): 0.184\nStream size: 1.27 GiB (78%)\nWriting library: x264 core 140 r2377 1ca7bb9\nDefault: Yes\nForced: No\nColor primaries: BT.709-5, BT.1361, IEC 61966-2-4, SMPTE RP177\nTransfer characteristics: BT.709-5, BT.1361\nMatrix coefficients: BT.709-5, BT.1361, IEC 61966-2-4 709, SMPTE RP177\n\n\n::Audio::\n\n\nID: 2\nFormat: AC-3\nFormat/Info: Audio Coding 3\nMode extension: CM (complete main)\nCodec ID: A_AC3\nDuration: 2h 2mn\nBit rate mode: Constant\nBit rate: 384 Kbps\nChannel(s): 6 channels\nChannel positions: Front: L C R, Side: L R, LFE\nSampling rate: 48.0 KHz\nBit depth: 16 bits\nCompression mode: Lossy\nStream size: 336 MiB (20%)\nDefault: Yes\nForced: No\n\n\n::IMDB::\n\n &lt;a href=&quot;\nhttp://www.imdb.com/title/tt1979320/&quot; rel=&quot;nofollow&quot; target=&quot;_NEW&quot;&gt;\nhttp://www.imdb.com/title/tt1979320/&lt;/a&gt;\n\n\n::Cast::\n\n\nDaniel Brahl, Chris Hemsworth, Olivia Wilde\n\n\n::Plot::\n\n\nA re-creation of the merciless 1970s rivalry between \nFormula One rivals James Hunt and Niki Lauda.\n\n\n::Poster::\n\n &lt;a href=&quot;\nhttp://i.imgur.com/dku0FUz.jpg&quot; rel=&quot;nofollow&quot; target=&quot;_NEW&quot;&gt;\nhttp://i.imgur.com/dku0FUz.jpg&lt;/a&gt;\n\n\n::Screenshots::\n\n &lt;a href=&quot;\nhttp://i.imgur.com/XkkV5ZB.jpg&quot; rel=&quot;nofollow&quot; target=&quot;_NEW&quot;&gt;\nhttp://i.imgur.com/XkkV5ZB.jpg&lt;/a&gt;\n\n\nSEED AND ENJOY!","torrent":{"xt":"urn:btih:8f7fd5c82f8c48ada092d6b5ba2791c61c0f464d","amp;dn":"Rush+2013+DVDRip+x264+AC3-MiLLENiUM","amp;tr":["udp%3A%2F%2Ftracker.openbittorrent.com%3A80","udp%3A%2F%2Fopen.demonii.com%3A1337","udp%3A%2F%2Ftracker.coppersurfer.tk%3A6969","udp%3A%2F%2Fexodus.desync.com%3A6969"],"infoHash":"8f7fd5c82f8c48ada092d6b5ba2791c61c0f464d","infoHashBuffer":{"type":"Buffer","data":[143,127,213,200,47,140,72,173,160,146,214,181,186,39,145,198,28,15,70,77]},"announce":[],"urlList":[]}}